<?xml version="1.0" standalone="no"?>
<!DOCTYPE svg PUBLIC "-//W3C//DTD SVG 20010904//EN"
 "http://www.w3.org/TR/2001/REC-SVG-20010904/DTD/svg10.dtd">
<svg version="1.0" xmlns="http://www.w3.org/2000/svg"
 width="300.000000pt" height="300.000000pt" viewBox="0 0 300.000000 300.000000"
 preserveAspectRatio="xMidYMid meet">
<metadata>
Created by potrace 1.14, written by Peter Selinger 2001-2017
</metadata>
<g transform="translate(0.000000,300.000000) scale(0.100000,-0.100000)"
fill="#000000" stroke="none">
<path d="M0 1500 l0 -1500 1500 0 1500 0 0 1500 0 1500 -1500 0 -1500 0 0
-1500z m1838 798 c235 -85 400 -275 448 -517 13 -66 15 -124 12 -290 -4 -192
-6 -211 -32 -286 -15 -44 -41 -103 -58 -132 -17 -28 -31 -54 -31 -58 1 -4 61
-67 133 -141 96 -97 129 -135 118 -139 -9 -4 -278 -4 -599 -2 -650 4 -631 2
-776 75 -176 89 -305 250 -353 438 -17 65 -20 111 -20 289 0 244 13 316 77
439 52 98 183 228 280 279 133 69 183 77 473 74 248 -2 257 -3 328 -29z"/>
<path d="M1378 2205 c-161 -52 -299 -223 -360 -446 -31 -115 -31 -335 0 -451
45 -166 139 -310 250 -385 93 -63 139 -73 325 -73 l160 0 -174 175 c-96 97
-175 180 -177 185 -2 6 99 11 265 12 l268 3 23 90 c32 124 33 303 3 430 -50
210 -175 379 -328 446 -63 28 -191 35 -255 14z"/>
</g>
</svg>
